<svg width="64" height="64" viewBox="0 0 16 16" xmlns="http://www.w3.org/2000/svg" shape-rendering="crispEdges">
  <!-- Background (transparent) -->
  <rect width="64" height="16" fill="none"/>
  
  <!-- Border -->
  <rect x="1" y="1" width="14" height="14" fill="#000000"/>
  <rect x="2" y="2" width="12" height="12" fill="#222222"/>
  
  <!-- Color Grid -->
  <rect x="2" y="2" width="3" height="3" fill="#FF0000"/>
  <rect x="6" y="2" width="3" height="3" fill="#00FF00"/>
  <rect x="10" y="2" width="3" height="3" fill="#0000FF"/>
  
  <rect x="2" y="6" width="3" height="3" fill="#FFFF00"/>
  <rect x="6" y="6" width="3" height="3" fill="#FF00FF"/>
  <rect x="10" y="6" width="3" height="3" fill="#00FFFF"/>
  
  <rect x="2" y="10" width="3" height="3" fill="#FF8800"/>
  <rect x="6" y="10" width="3" height="3" fill="#0088FF"/>
  <rect x="10" y="10" width="3" height="3" fill="#88FF00"/>
  
  <!-- Highlights -->
  <rect x="2" y="2" width="1" height="1" fill="#FFFFFF"/>
  <rect x="6" y="2" width="1" height="1" fill="#FFFFFF"/>
  <rect x="10" y="2" width="1" height="1" fill="#FFFFFF"/>
  
  <rect x="2" y="6" width="1" height="1" fill="#FFFFFF"/>
  <rect x="6" y="6" width="1" height="1" fill="#FFFFFF"/>
  <rect x="10" y="6" width="1" height="1" fill="#FFFFFF"/>
  
  <rect x="2" y="10" width="1" height="1" fill="#FFFFFF"/>
  <rect x="6" y="10" width="1" height="1" fill="#FFFFFF"/>
  <rect x="10" y="10" width="1" height="1" fill="#FFFFFF"/>
</svg>