<svg width="64" height="64" viewBox="0 0 16 16" xmlns="http://www.w3.org/2000/svg" shape-rendering="crispEdges">
  <!-- Background (transparent) -->
  <rect width="16" height="16" fill="none"/>
  
  <!-- Monitor Screen -->
  <rect x="3" y="2" width="10" height="8" fill="#0088FF"/>
  
  <!-- Desktop UI Elements -->
  <rect x="4" y="3" width="2" height="2" fill="#FFFFFF"/>
  <rect x="4" y="6" width="8" height="1" fill="#FFFFFF"/>
  <rect x="4" y="8" width="6" height="1" fill="#FFFFFF"/>
  
  <!-- Monitor Frame -->
  <rect x="2" y="1" width="12" height="1" fill="#555555"/>
  <rect x="2" y="2" width="1" height="8" fill="#555555"/>
  <rect x="13" y="2" width="1" height="8" fill="#555555"/>
  <rect x="2" y="10" width="12" height="1" fill="#555555"/>
  
  <!-- Monitor Stand -->
  <rect x="6" y="11" width="4" height="1" fill="#555555"/>
  <rect x="5" y="12" width="6" height="1" fill="#555555"/>
  <rect x="4" y="13" width="8" height="1" fill="#777777"/>
  
  <!-- Black outline -->
  <rect x="2" y="0" width="12" height="1" fill="#000000"/>
  <rect x="1" y="1" width="1" height="10" fill="#000000"/>
  <rect x="14" y="1" width="1" height="10" fill="#000000"/>
  <rect x="2" y="11" width="4" height="1" fill="#000000"/>
  <rect x="10" y="11" width="4" height="1" fill="#000000"/>
  <rect x="4" y="12" width="1" height="1" fill="#000000"/>
  <rect x="11" y="12" width="1" height="1" fill="#000000"/>
  <rect x="3" y="13" width="1" height="1" fill="#000000"/>
  <rect x="12" y="13" width="1" height="1" fill="#000000"/>
  <rect x="4" y="14" width="8" height="1" fill="#000000"/>
</svg>